<svg width="1004" height="1004" viewBox="0 0 1004 1004" fill="none" xmlns="http://www.w3.org/2000/svg">
<rect width="1004" height="1004" rx="330" fill="white"/>
<path d="M492.341 114.84C412.698 116.632 333.176 142.967 265.895 194.575C191.542 251.671 140.466 333.838 122.172 425.782C103.878 517.726 119.613 613.186 166.447 694.395C168.461 697.887 171.78 700.437 175.674 701.482C179.567 702.527 183.716 701.983 187.209 699.969C190.701 697.955 193.25 694.636 194.295 690.743C195.341 686.849 194.796 682.7 192.783 679.208C149.553 604.411 135.01 516.442 151.866 431.712C168.723 346.982 215.828 271.278 284.394 218.723C347.737 170.085 425.602 144.172 505.458 145.153C585.314 146.134 662.519 173.951 724.649 224.129H709.097C705.069 224.129 701.206 225.73 698.358 228.578C695.509 231.426 693.909 235.289 693.909 239.317C693.909 243.345 695.509 247.208 698.358 250.056C701.206 252.904 705.069 254.504 709.097 254.504H764.349C768.377 254.504 772.24 252.904 775.088 250.056C777.936 247.208 779.536 243.345 779.536 239.317V184.065C779.561 182.034 779.178 180.02 778.411 178.14C777.643 176.26 776.507 174.553 775.068 173.12C773.629 171.687 771.918 170.557 770.035 169.797C768.152 169.037 766.136 168.662 764.106 168.695C760.088 168.759 756.26 170.412 753.459 173.293C750.658 176.174 749.113 180.047 749.161 184.065V204.841C677.333 144.634 586.039 112.641 492.341 114.84ZM501.15 194.271C392.285 194.271 301.039 254.413 246.546 340.071H245.878V340.982C216.05 388.306 194.271 441.098 194.271 501.119C194.271 561.11 216.05 613.901 245.908 661.226V662.167H246.516C301.039 747.825 392.285 807.998 501.18 807.998C610.074 807.998 701.321 747.855 755.783 662.198H756.391V661.286C786.28 613.962 808.059 561.14 808.059 501.119C808.059 441.068 786.28 388.276 756.391 340.921V340.101H755.783C701.321 254.444 610.074 194.301 501.18 194.301L501.15 194.271ZM485.962 227.744V340.101H379.892C388.808 307.12 399.578 274.669 412.151 242.901C435.927 234.351 460.802 229.237 486.023 227.714L485.962 227.744ZM516.337 227.744C540.652 229.213 564.65 234.017 587.658 242.02C600.393 274.068 611.295 306.815 620.311 340.101H516.367V227.714L516.337 227.744ZM625.991 258.514C663.058 278.316 695.197 306.2 720.032 340.101H652.053C645.066 313.067 635.954 285.821 625.96 258.514H625.991ZM373.605 259.881C363.812 286.193 355.267 312.953 347.999 340.071H282.328C306.536 306.999 337.691 279.628 373.605 259.881ZM823.611 302.072C821.009 302.2 818.485 302.995 816.28 304.381C814.075 305.766 812.263 307.695 811.018 309.983C809.774 312.271 809.139 314.84 809.173 317.444C809.208 320.048 809.912 322.599 811.218 324.853C854.447 399.649 868.99 487.618 852.134 572.348C835.277 657.078 788.172 732.782 719.607 785.338C656.398 833.859 578.729 859.755 499.049 858.874C419.369 857.992 342.292 830.385 280.171 780.478H294.751C298.779 780.478 302.642 778.878 305.491 776.03C308.339 773.181 309.939 769.318 309.939 765.29C309.939 761.262 308.339 757.399 305.491 754.551C302.642 751.703 298.779 750.103 294.751 750.103H242.051C240.225 749.872 238.372 749.975 236.583 750.407C236.573 750.407 236.593 750.407 236.583 750.407C233.153 751.107 230.039 752.971 227.825 755.683C225.611 758.395 224.402 761.789 224.403 765.29V820.512C224.403 824.54 226.003 828.403 228.851 831.251C231.699 834.099 235.562 835.7 239.59 835.7C243.618 835.7 247.481 834.099 250.33 831.251C253.178 828.403 254.778 824.54 254.778 820.512V799.037C317.643 851.784 395.691 883.11 477.579 888.461C571.144 894.687 663.772 866.611 738.135 809.486C812.488 752.389 863.565 670.223 881.859 578.278C900.153 486.334 884.418 390.875 837.583 309.665C836.183 307.232 834.137 305.234 831.67 303.894C829.204 302.553 826.414 301.922 823.611 302.072ZM261.855 370.476H340.739C332.417 408.481 327.357 447.126 325.612 485.992H227.744C230.144 443.771 242.628 405.499 261.855 370.476ZM371.539 370.476H485.992V485.992H355.653C357.472 447.088 362.789 408.427 371.539 370.476ZM516.367 370.476H628.603C637.353 408.427 642.67 447.088 644.489 485.992H516.367V370.476ZM659.343 370.476H740.505C759.702 405.499 772.186 443.771 774.616 485.992H674.469C672.724 447.126 667.664 408.481 659.343 370.476ZM227.714 516.367H325.096C325.278 554.579 328.893 593.034 336.335 631.853H261.886C242.658 596.831 230.174 558.558 227.775 516.367H227.714ZM355.046 516.367H485.962V631.853H367.044C359.255 593.846 355.236 555.163 355.046 516.367ZM516.337 516.367H645.097C644.907 555.164 640.888 593.846 633.099 631.853H516.367L516.337 516.367ZM674.986 516.367H774.616C772.186 558.589 759.702 596.861 740.505 631.853H663.777C671.094 593.789 674.826 555.128 674.986 516.367ZM282.328 662.228H343.078C349.153 687.287 356.656 712.559 365.95 738.044C333.249 718.669 304.805 692.88 282.328 662.228ZM374.061 662.228H485.992V774.615C458.624 772.976 431.676 767.105 406.106 757.211C393.182 726.348 382.464 694.607 374.03 662.228H374.061ZM516.367 662.228H626.112C617.582 694.948 606.721 727.014 593.611 758.183C568.825 767.471 542.789 773 516.367 774.585V662.228ZM657.064 662.228H720.032C696.927 693.828 667.484 720.26 633.585 739.836C643.214 713.714 650.868 687.895 657.064 662.228Z" fill="black"/>
</svg>
