<svg width="24" height="18" viewBox="0 0 24 18" fill="none" xmlns="http://www.w3.org/2000/svg">
<mask id="mask0_180_17378" style="mask-type:luminance" maskUnits="userSpaceOnUse" x="0" y="0" width="24" height="18">
<path d="M23.8095 0H0.666656V18H23.8095V0Z" fill="white"/>
</mask>
<g mask="url(#mask0_180_17378)">
<path d="M4.39224 3.2715C4.3106 3.2715 4.22973 3.28857 4.15432 3.32174C4.07892 3.35494 4.01039 3.40354 3.95272 3.46484C3.89503 3.52614 3.84932 3.59887 3.81818 3.67894C3.78704 3.75898 3.77109 3.84477 3.77124 3.93136V10.5243C3.77124 12.7121 5.43907 14.4859 7.49532 14.4859C9.55195 14.4859 11.2194 12.7121 11.2194 10.5243V5.90972C11.2194 5.54564 10.9413 5.25028 10.5984 5.25028C10.5168 5.25037 10.436 5.26754 10.3607 5.30078C10.2854 5.33398 10.2169 5.38261 10.1593 5.44391C10.1017 5.50517 10.0561 5.57791 10.025 5.65791C9.99394 5.73789 9.978 5.82361 9.97816 5.91014V10.5001C9.97816 11.9769 8.86422 13.1678 7.49532 13.1678C6.12642 13.1678 5.01247 11.9774 5.01247 10.5006V3.93136C5.01247 3.56686 4.73476 3.2715 4.39224 3.2715ZM13.7015 6.2589e-08C12.9763 -0.000136751 12.267 0.224025 11.6602 0.645027C11.0534 1.06603 10.5755 1.66559 10.2852 2.37027C10.1054 2.80514 10.4148 3.29156 10.8622 3.29156C10.9846 3.29063 11.1041 3.25209 11.2063 3.18055C11.3084 3.10903 11.3888 3.00761 11.4377 2.88859C11.8288 1.96282 12.6963 1.3185 13.7007 1.3185C15.0715 1.3185 16.1866 2.51796 16.1866 3.9915V10.5341C16.1866 10.7088 16.2521 10.8764 16.3685 11C16.4851 11.1235 16.643 11.1929 16.8078 11.1929C16.9725 11.1929 17.1306 11.1235 17.247 11C17.3636 10.8764 17.429 10.7088 17.429 10.5341V3.95386C17.429 1.77014 15.7596 6.2589e-08 13.7007 6.2589e-08H13.7015Z" fill="#EC0059"/>
<path d="M13.6876 3.2932C13.3443 3.2932 13.0654 3.58856 13.0654 3.9518V10.5316C13.0654 12.7158 14.7375 14.4855 16.7999 14.4855C18.862 14.4855 20.534 12.7149 20.534 10.5316V9.87792C20.534 9.51464 20.2552 9.21928 19.9119 9.21928C19.5686 9.21928 19.2897 9.51464 19.2897 9.87792V10.5079C19.2897 11.9823 18.1727 13.1813 16.7999 13.1813C15.4268 13.1813 14.3101 11.9814 14.3101 10.5079V3.9518C14.3101 3.58856 14.0313 3.2932 13.6876 3.2932ZM0.666656 3.95428C0.666656 1.77054 2.3341 0 4.39034 0C6.44697 0 8.11441 1.77014 8.11441 3.95428V10.5341C8.10876 10.7046 8.04087 10.8662 7.92509 10.9848C7.80935 11.1033 7.65471 11.1695 7.4938 11.1695C7.33289 11.1695 7.17825 11.1033 7.06251 10.9848C6.94673 10.8662 6.87884 10.7046 6.87319 10.5341V3.9923C6.87319 2.51877 5.75924 1.31891 4.39034 1.31891C3.02144 1.31891 1.90789 2.51796 1.90789 3.9923V5.26706C1.90222 5.43761 1.83435 5.59916 1.71858 5.7177C1.60281 5.83624 1.44818 5.90246 1.28727 5.90246C1.12636 5.90246 0.971732 5.83624 0.855964 5.7177C0.740196 5.59916 0.672327 5.43761 0.666656 5.26706V3.95386V3.95428ZM1.2433 7.90078C0.915442 7.92408 0.666656 8.23092 0.666656 8.58108V10.7955C0.666656 12.6368 1.34937 14.3346 2.4583 15.5966C2.57633 15.7308 2.73601 15.7979 2.89531 15.7979C3.055 15.7979 3.20389 15.7353 3.32191 15.6097C3.43253 15.4922 3.49593 15.3339 3.49881 15.1679C3.50168 15.0019 3.44381 14.8412 3.33734 14.7195C2.4146 13.682 1.9012 12.3093 1.90249 10.8831V8.55778C1.90249 8.19408 1.62516 7.89914 1.28419 7.89914L1.2433 7.90078ZM21.4466 0.00204546H21.4046C21.3197 0.00389919 21.2349 0.0111394 21.1508 0.0237273C21.1469 0.0237273 21.1442 0.0245454 21.1404 0.0253636C20.6229 0.103647 20.1494 0.377264 19.8069 0.795986C19.4643 1.21471 19.2756 1.75043 19.2754 2.30482V6.5827C19.2754 6.94594 19.5532 7.24092 19.8957 7.24092C19.9096 7.24092 19.9238 7.24092 19.9373 7.2397C20.2667 7.21636 20.5159 6.91036 20.5159 6.56058V2.33346C20.5159 1.80286 20.9001 1.3455 21.4003 1.31932C21.6356 1.30626 21.8665 1.3891 22.046 1.55086C22.0553 1.55946 22.0645 1.56723 22.0742 1.57664C22.0838 1.58646 22.0946 1.59627 22.1039 1.60691C22.1151 1.61877 22.1263 1.63146 22.1374 1.64454C22.1479 1.65682 22.1579 1.66909 22.1675 1.68177C22.1776 1.69446 22.1868 1.70754 22.1961 1.72064C22.203 1.73046 22.21 1.73986 22.2161 1.74968C22.2285 1.76891 22.2404 1.78854 22.2508 1.80818C22.2559 1.81677 22.2601 1.82536 22.2643 1.83396C22.2759 1.85646 22.2867 1.87936 22.2975 1.90309L22.3052 1.92273C22.3292 1.98194 22.3473 2.04364 22.3592 2.10682C22.365 2.13546 22.3693 2.16409 22.3723 2.19396L22.3735 2.21032C22.3762 2.24141 22.3781 2.27209 22.3781 2.304V10.8654C22.3781 11.1621 22.3558 11.4537 22.3126 11.7381C22.2978 11.8323 22.3025 11.9288 22.3264 12.0209C22.3503 12.113 22.3928 12.1984 22.451 12.2714C22.5092 12.3443 22.5816 12.403 22.6632 12.4432C22.7449 12.4835 22.8338 12.5045 22.9239 12.5047H22.9266C23.2313 12.5047 23.4921 12.2691 23.5395 11.9483C23.5922 11.5924 23.6185 11.2327 23.6182 10.8724V2.30441C23.619 1.70996 23.4022 1.13839 23.0134 0.71018C22.6503 0.307405 22.1614 0.0585945 21.6379 0.0102273L21.6144 0.0081818C21.5718 0.00513874 21.5291 0.00295655 21.4864 0.00163636C21.4736 0.00163636 21.4605 0 21.4474 0L21.4466 0.00204546Z" fill="#EC0059"/>
<path d="M12.1509 13.8183C11.8608 13.8183 11.5878 13.9643 11.4142 14.211L11.4115 14.2151C10.4487 15.5843 8.91244 16.4721 7.18483 16.4721C6.67324 16.4724 6.16435 16.3932 5.67437 16.2372C5.61651 16.2184 5.55865 16.2098 5.50003 16.2098C5.33918 16.2098 5.18181 16.2781 5.06417 16.4021C4.73438 16.7531 4.8771 17.3496 5.3226 17.4952C5.91235 17.6879 6.5376 17.7791 7.1829 17.7791H7.19833C8.18845 17.7771 9.12535 17.5533 9.96467 17.1307C10.8039 16.708 11.5486 16.1007 12.1494 15.3491C12.76 16.1133 13.5208 16.7268 14.3784 17.1465C15.236 17.5663 16.1698 17.7822 17.1143 17.7791C18.5557 17.7791 19.8868 17.2951 20.9664 16.4528C21.0011 16.4258 21.0316 16.3959 21.0582 16.3653L21.0594 16.3636C21.1276 16.3084 21.1944 16.2524 21.2599 16.1943L21.2715 16.1844C21.3313 16.1313 21.3895 16.0781 21.4474 16.0233C21.4578 16.0134 21.469 16.0032 21.4794 15.9926C21.528 15.9459 21.5751 15.8985 21.6221 15.8502L21.6792 15.7929C21.7193 15.7512 21.7583 15.7083 21.7968 15.6653C21.8177 15.6424 21.8393 15.6199 21.8605 15.5958L21.8663 15.5896C21.9909 15.4477 22.1108 15.3012 22.2238 15.1486C22.5447 14.7174 22.2605 14.0838 21.744 14.0838H21.7259C21.538 14.0838 21.3621 14.1779 21.2457 14.3354C21.1535 14.4581 21.0568 14.5768 20.9556 14.6913L20.9537 14.6929C20.8056 14.8602 20.6478 15.0177 20.4819 15.1646L20.4723 15.1728C20.4438 15.1981 20.4144 15.2223 20.3859 15.2476L20.3666 15.264L20.2841 15.3315L20.2578 15.3519L20.178 15.4137C20.168 15.4219 20.1579 15.4293 20.1483 15.4362C20.1221 15.4563 20.0955 15.4755 20.0692 15.4943L20.0361 15.5181L19.957 15.5729L19.9215 15.5966C19.8955 15.6144 19.8693 15.6319 19.8428 15.6489L19.8054 15.6727L19.7267 15.7218L19.6881 15.7451C19.6615 15.7614 19.6349 15.777 19.6083 15.7921L19.5697 15.8138L19.488 15.8596L19.4505 15.8793C19.422 15.8944 19.3942 15.9091 19.3657 15.9234L19.3348 15.9386C19.2322 15.9893 19.1273 16.0368 19.0212 16.0806L18.9923 16.0928C18.9669 16.1031 18.941 16.1133 18.9152 16.1227C18.897 16.1294 18.879 16.1365 18.8612 16.1439L18.7902 16.1697L18.7293 16.1914L18.6598 16.2147L18.5954 16.2356C18.5728 16.2427 18.55 16.2495 18.5271 16.2561L18.46 16.2761C18.4377 16.2826 18.4145 16.2884 18.3921 16.2945C18.3466 16.306 18.3011 16.3175 18.2556 16.3289L18.1842 16.3452L18.1175 16.3599C18.0932 16.3653 18.0681 16.3698 18.0442 16.3743C18.0222 16.3784 17.9999 16.3829 17.9775 16.3866L17.9027 16.3988C17.8807 16.4021 17.8591 16.4062 17.8371 16.4086C17.8109 16.4127 17.7846 16.416 17.7592 16.4193L17.6952 16.4274L17.6142 16.4356L17.5521 16.4418L17.466 16.4483C17.4464 16.4496 17.4275 16.4516 17.4074 16.4524C17.3758 16.4541 17.3434 16.4557 17.3118 16.4565C17.2948 16.4565 17.2786 16.4581 17.262 16.4589C17.2138 16.4602 17.1644 16.461 17.1154 16.461C15.3901 16.461 13.8558 15.5761 12.8922 14.2118L12.8892 14.2179L12.8853 14.2118C12.8001 14.0902 12.6894 13.9913 12.5619 13.923C12.4345 13.8547 12.2937 13.8188 12.1509 13.8183Z" fill="#EC0059"/>
</g>
</svg>
